<?xml version="1.0" encoding="UTF-8"?><svg id="Layer_2" xmlns="http://www.w3.org/2000/svg" xmlns:xlink="http://www.w3.org/1999/xlink" viewBox="0 0 360.06 384.52"><defs><style>.cls-1{fill:#fff;}.cls-2{fill:#e6e6e6;}.cls-3{fill:#0d7bc0;}.cls-4{fill:#9c0808;}.cls-5{fill:#29abe2;}.cls-6{fill:#d91a0c;}</style><symbol id="LunasLokal" viewBox="0 0 422.79 209.48"><g><g id="Logobase"><g id="BaseBG"><rect class="cls-1" x="0" y="0" width="422.79" height="209.48" rx="104.74" ry="104.74"/></g><path id="BaseOutline" d="M318.05,5c26.53,0,51.54,10.41,70.44,29.3,18.9,18.9,29.3,43.91,29.3,70.44s-10.41,51.54-29.3,70.44-43.91,29.3-70.44,29.3H104.74c-26.53,0-51.54-10.41-70.44-29.3C15.41,156.28,5,131.27,5,104.74S15.41,53.2,34.3,34.3C53.2,15.41,78.22,5,104.74,5h213.31M318.05,0H104.74C47.13,0,0,47.13,0,104.74H0c0,57.61,47.13,104.74,104.74,104.74h213.31c57.61,0,104.74-47.13,104.74-104.74h0C422.79,47.13,375.66,0,318.05,0h0Z"/></g><g id="Magnifier"><path id="DropShadow" class="cls-2" d="M264.52,91.59c-4.89,21.72,2.83,44.39,19.91,58.43,17.68,14.52,42.43,17.38,63.15,7.28-3.13,2.27-18.43,12.89-39.2,9.76-16.49-2.49-26.75-12.18-30.04-15.57-1.48,1.28-36.56,31.67-39.96,33.49-1.51,.81-2.77,.55-2.77,.55-1.04-.21-1.7-.9-2.3-1.53-1.09-1.16-2.49-2.75-4.09-4.77-.33-.51-.74-1.34-.6-2.26,.17-1.11,1.05-1.84,1.48-2.17,1.83-1.42,18.8-13.89,42.1-30.88-2.76-3.65-5.88-8.7-8.09-15.15-5.67-16.57-1.59-31.33,.39-37.18Z"/><circle id="BaseColor" class="cls-5" cx="321.64" cy="104.74" r="48.6"/><path id="Shadow" class="cls-3" d="M273.04,104.74c0,26.84,21.76,48.6,48.6,48.6,11.54,0,22.14-4.03,30.48-10.75-18.58,10.05-42.13,7.63-58.07-7.02-17.46-16.04-21.03-42.36-9.2-62.56-7.35,8.52-11.8,19.6-11.8,31.73Z"/><path id="Highlight" class="cls-1" d="M368.12,103.14c-.14-3.74-1.13-18.23-12.7-30.35-14.12-14.77-32.8-14.32-35.71-14.2,5.52,1.05,19.31,4.43,31.66,16.35,11.11,10.72,15.24,22.73,16.76,28.2Z"/><path id="Outline" d="M321.64,46.14c-32.37,0-58.6,26.24-58.6,58.6,0,12.51,3.93,24.09,10.61,33.61l-41.64,30.79c-1.79,1.41-2.11,4.02-.7,5.82l2.55,3.24c1.41,1.79,4.02,2.11,5.82,.7l40.43-32.83c10.61,10.67,25.3,17.27,41.54,17.27,32.37,0,58.6-26.24,58.6-58.6s-26.24-58.6-58.6-58.6Zm0,107.21c-26.8,0-48.6-21.8-48.6-48.6s21.8-48.6,48.6-48.6,48.6,21.8,48.6,48.6-21.8,48.6-48.6,48.6Z"/></g><g id="HalfPill"><path id="DropShadow-2" class="cls-2" d="M98.74,60.02c12.36-6.37,27.36-4.65,37.83,4.29,10.84,9.26,14.73,24.52,9.66,38,.14-1.63,1.51-21.62-14.56-34.52-14.16-11.37-30.67-8.24-32.93-7.77Z"/><g id="BaseColor-2"><path class="cls-6" d="M283.85,4.7c-192.46,0-211.62,1.34-243.28,37.94-15.98,20.24-19.4,42.64-19.4,42.64-4.27,27.9,5.33,61.86,30.13,81.44,30.99,24.47,78.66,20.91,107.83,.92,42.95-29.42,28.64-79.14,78.12-130.44,11.96-12.41,27.84-23.6,49.87-32.5h-3.27ZM114.48,134.13c-24.3,0-43.99-19.7-43.99-44s19.69-43.99,43.99-43.99,44,19.7,44,43.99-19.7,44-44,44Z"/></g><path id="Shadow-2" class="cls-4" d="M159.13,167.64c15.99-10.95,24.04-24.72,30.41-40.34-26.39,48.55-86.76,63.36-126.09,38.49C29.67,144.42,14.78,95.92,33.62,52.78c-.01,.02-.02,.03-.03,.05-10.04,16.9-12.42,32.45-12.42,32.45-4.27,27.9,5.33,61.86,30.13,81.44,30.99,24.47,78.66,20.91,107.83,.92Z"/><path id="Highlight-2" class="cls-1" d="M283.85,4.7c-126.72,0-178.31,.58-207.8,11.43h0c3.44-.8,9-2.01,15.88-3.15,20.93-3.47,37.02-3.36,44.55-3.45,60.91-.74,131.64-.44,131.64-.44-8.15,4.78-18.72,11.99-29.34,22.57-26.12,26.01-35.33,58.17-34.67,56.7l.03-.07c6.83-16.36,16.28-33.64,33.13-51.1,11.96-12.41,27.84-23.6,49.87-32.5h-3.27Z"/><g id="OutlineOut"><path d="M104.09,0C54.88,.31,13.44,35,2.7,81.13v.05c-.15,.58-.27,1.16-.39,1.74-.09,.42-.18,.84-.27,1.27-.08,.39-.15,.79-.23,1.19-.11,.6-.22,1.21-.33,1.81-.05,.3-.1,.6-.15,.91-.11,.69-.22,1.39-.31,2.09-.04,.25-.07,.5-.11,.75-.1,.77-.2,1.55-.28,2.32-.02,.19-.05,.38-.07,.56-.2,1.91-.35,3.82-.44,5.75-.02,.37-.03,.75-.04,1.12-.02,.58-.04,1.16-.06,1.75,0,.4-.01,.81-.02,1.21,0,.59,0,1.18,0,1.77,0,.34,0,.67,.01,1.01,.01,.75,.03,1.5,.06,2.24,0,.16,.01,.32,.02,.47,.4,9.17,2.04,18.42,5.06,27.53,.67,2.23,1.44,4.51,2.31,6.81,14.23,35.45,47.34,61.49,86.72,65.48,3.04,.26,6.16,.42,9.37,.46,0,0,18.93-1.44,27.63-4.66C229.26,176.85,179.62,51.67,299.09,4.7c0,0,6.13-1.83,17.87-4.7h-22.19c-62.33,0-164.28,.02-190.68,0ZM237.25,37.2c-49.48,51.31-35.17,101.03-78.12,130.45-29.17,19.98-76.84,23.55-107.83-.92-24.8-19.58-34.39-53.54-30.13-81.45,0,0,3.42-22.4,19.4-42.64C72.24,6.04,91.39,4.7,283.85,4.7h3.27c-22.02,8.9-37.9,20.09-49.87,32.5Z"/></g><path id="OutlineIn" d="M114.49,56.14c18.74,0,33.99,15.25,33.99,33.99s-15.25,33.99-33.99,33.99-33.99-15.25-33.99-33.99,15.25-33.99,33.99-33.99m0-10c-24.3,0-43.99,19.7-43.99,43.99s19.7,43.99,43.99,43.99,43.99-19.7,43.99-43.99-19.7-43.99-43.99-43.99h0Z"/></g></g></symbol></defs><g id="LunasLokal-2"><g><use width="422.79" height="209.48" transform="translate(-43.51 255.45) rotate(-45)" xlink:href="#LunasLokal"/><ellipse cx="182.91" cy="362.05" rx="165.31" ry="22.46"/></g></g></svg>