<?xml version="1.0" encoding="UTF-8"?><svg id="Layer_2" xmlns="http://www.w3.org/2000/svg" viewBox="0 0 156.43 133.36"><defs><style>.cls-1{fill:#fff;}.cls-2{fill:#e6e6e6;}.cls-3{fill:#0d7bc0;}.cls-4{fill:#29abe2;}</style></defs><g id="LunasLokal"><g id="Magnifier"><path id="DropShadow" class="cls-2" d="M41.75,41.55c-6.38,21.33-.24,44.48,15.84,59.66,16.63,15.71,41.13,20.27,62.5,11.62-3.28,2.05-19.27,11.59-39.78,7.04-16.28-3.62-25.85-14-28.9-17.6-1.56,1.17-38.65,29.08-42.17,30.66-1.56,.7-2.8,.36-2.8,.36-1.02-.28-1.64-1.01-2.19-1.69-1-1.23-2.3-2.91-3.75-5.04-.29-.53-.65-1.39-.44-2.3,.24-1.09,1.17-1.76,1.62-2.06,1.92-1.29,19.71-12.56,44.13-27.91-2.5-3.84-5.26-9.08-7.02-15.67-4.52-16.92,.57-31.36,2.95-37.06Z"/><circle id="BaseColor" class="cls-4" cx="97.82" cy="58.61" r="48.6" transform="translate(32.62 152.16) rotate(-86.05)"/><path id="Shadow" class="cls-3" d="M49.34,55.26c-1.85,26.78,18.36,49.99,45.14,51.84,11.51,.8,22.36-2.5,31.14-8.63-19.22,8.75-42.55,4.71-57.45-11-16.31-17.2-18.06-43.71-4.87-63.05-7.92,7.99-13.12,18.74-13.96,30.84Z"/><path id="Highlight" class="cls-1" d="M144.3,60.21c.12-3.74,.13-18.27-10.58-31.15-13.06-15.71-31.74-16.55-34.65-16.63,5.44,1.43,18.96,5.75,30.46,18.49,10.35,11.46,13.64,23.73,14.77,29.29Z"/><path id="Outline" d="M101.86,.14c-32.29-2.23-60.27,22.14-62.5,54.43-.86,12.48,2.26,24.3,8.27,34.26L3.96,116.68c-1.88,1.28-2.38,3.87-1.1,5.75l2.32,3.41c1.28,1.88,3.87,2.38,5.75,1.1l42.6-29.96c9.85,11.37,24.05,18.97,40.25,20.09,32.29,2.23,60.27-22.14,62.5-54.43C158.52,30.36,134.15,2.37,101.86,.14Zm-7.39,106.95c-26.74-1.85-46.99-25.1-45.14-51.84,1.85-26.74,25.1-46.99,51.84-45.14,26.74,1.85,46.99,25.1,45.14,51.84-1.85,26.74-25.1,46.99-51.84,45.14Z"/></g></g></svg>