<?xml version="1.0" encoding="UTF-8"?><svg id="Layer_2" xmlns="http://www.w3.org/2000/svg" viewBox="0 0 316.95 209.41"><defs><style>.cls-1{fill:#fff;}.cls-2{fill:#e6e6e6;}.cls-3{fill:#9c0808;}.cls-4{fill:#d91a0c;}</style></defs><g id="LunasLokal"><g id="HalfPill"><path id="DropShadow" class="cls-2" d="M98.73,60.02c12.36-6.37,27.36-4.65,37.83,4.29,10.84,9.26,14.73,24.52,9.66,38,.14-1.63,1.51-21.62-14.56-34.52-14.16-11.37-30.67-8.24-32.93-7.77Z"/><g id="BaseColor"><path class="cls-4" d="M283.85,4.7c-192.46,0-211.62,1.34-243.28,37.94-15.98,20.24-19.4,42.64-19.4,42.64-4.27,27.9,5.33,61.86,30.13,81.44,30.99,24.47,78.66,20.91,107.83,.92,42.95-29.42,28.64-79.14,78.12-130.44,11.96-12.41,27.84-23.6,49.87-32.5h-3.27ZM114.48,134.13c-24.3,0-43.99-19.7-43.99-44s19.69-43.99,43.99-43.99,44,19.7,44,43.99-19.7,44-44,44Z"/></g><path id="Shadow" class="cls-3" d="M159.13,167.64c15.99-10.95,24.04-24.72,30.41-40.34-26.39,48.55-86.76,63.36-126.09,38.49C29.66,144.42,14.78,95.92,33.62,52.78c-.01,.02-.02,.03-.03,.05-10.04,16.9-12.42,32.45-12.42,32.45-4.27,27.9,5.33,61.86,30.13,81.44,30.99,24.47,78.66,20.91,107.83,.92Z"/><path id="Highlight" class="cls-1" d="M283.85,4.7c-126.72,0-178.31,.58-207.8,11.43h0c3.44-.8,9-2.01,15.88-3.15,20.93-3.47,37.02-3.36,44.55-3.45,60.91-.74,131.64-.44,131.64-.44-8.15,4.78-18.72,11.99-29.34,22.57-26.12,26.01-35.33,58.17-34.67,56.7l.03-.07c6.83-16.36,16.28-33.64,33.13-51.1,11.96-12.41,27.84-23.6,49.87-32.5h-3.27Z"/><g id="OutlineOut"><path d="M104.08,0C54.87,.31,13.43,35,2.7,81.13v.05c-.15,.58-.27,1.16-.39,1.74-.09,.42-.18,.84-.27,1.27-.08,.39-.15,.79-.23,1.19-.11,.6-.22,1.21-.33,1.81-.05,.3-.1,.6-.15,.91-.11,.69-.22,1.39-.31,2.09-.04,.25-.07,.5-.11,.75-.1,.77-.2,1.55-.28,2.32-.02,.19-.05,.38-.07,.56-.2,1.91-.35,3.82-.44,5.75-.02,.37-.03,.75-.04,1.12-.02,.58-.04,1.16-.06,1.75,0,.4-.01,.81-.02,1.21,0,.59,0,1.18,0,1.77,0,.34,0,.67,.01,1.01,.01,.75,.03,1.5,.06,2.24,0,.16,.01,.32,.02,.47,.4,9.17,2.04,18.42,5.06,27.53,.67,2.23,1.44,4.51,2.31,6.81,14.23,35.45,47.34,61.49,86.72,65.48,3.04,.26,6.16,.42,9.37,.46,0,0,18.93-1.44,27.63-4.66C229.25,176.85,179.61,51.67,299.08,4.7c0,0,6.13-1.83,17.87-4.7h-22.19c-62.33,0-164.28,.02-190.68,0ZM237.24,37.2c-49.48,51.31-35.17,101.03-78.12,130.45-29.17,19.98-76.84,23.55-107.83-.92-24.8-19.58-34.39-53.54-30.13-81.45,0,0,3.42-22.4,19.4-42.64C72.23,6.04,91.39,4.7,283.85,4.7h3.27c-22.02,8.9-37.9,20.09-49.87,32.5Z"/></g><path id="OutlineIn" d="M114.48,56.14c18.74,0,33.99,15.25,33.99,33.99s-15.25,33.99-33.99,33.99-33.99-15.25-33.99-33.99,15.25-33.99,33.99-33.99m0-10c-24.3,0-43.99,19.7-43.99,43.99s19.7,43.99,43.99,43.99,43.99-19.7,43.99-43.99-19.7-43.99-43.99-43.99h0Z"/></g></g></svg>